{"accessors":[{"bufferView":0,"byteOffset":0,"componentType":5123,"count":36,"max":[23],"min":[0],"type":"SCALAR"},{"bufferView":1,"byteOffset":0,"componentType":5126,"count":24,"max":[1,1,1],"min":[-1,-1,-1],"type":"VEC3"},{"bufferView":1,"byteOffset":288,"componentType":5126,"count":24,"max":[6.017912864685059,18.460521697998047,89.06099700927734],"min":[-10.282087326049805,2.16051983833313,0],"type":"VEC3"},{"bufferView":0,"byteOffset":72,"componentType":5123,"count":36,"max":[23],"min":[0],"type":"SCALAR"},{"bufferView":1,"byteOffset":576,"componentType":5126,"count":24,"max":[1,1,1],"min":[-1,-1,-1],"type":"VEC3"},{"bufferView":1,"byteOffset":864,"componentType":5126,"count":24,"max":[85.24736785888672,97.32665252685547,89.06099700927734],"min":[68.94737243652344,81.02665710449219,0],"type":"VEC3"},{"bufferView":0,"byteOffset":144,"componentType":5123,"count":36,"max":[23],"min":[0],"type":"SCALAR"},{"bufferView":1,"byteOffset":1152,"componentType":5126,"count":24,"max":[1,1,1],"min":[-1,-1,-1],"type":"VEC3"},{"bufferView":1,"byteOffset":1440,"componentType":5126,"count":24,"max":[58.99241638183594,68.1321792602539,89.06099700927734],"min":[42.69241714477539,51.83218002319336,0],"type":"VEC3"},{"bufferView":0,"byteOffset":216,"componentType":5123,"count":36,"max":[23],"min":[0],"type":"SCALAR"},{"bufferView":1,"byteOffset":1728,"componentType":5126,"count":24,"max":[1,1,1],"min":[-1,-1,-1],"type":"VEC3"},{"bufferView":1,"byteOffset":2016,"componentType":5126,"count":24,"max":[31.51194953918457,42.04194641113281,89.06099700927734],"min":[15.211950302124023,25.741943359375,0],"type":"VEC3"}],"asset":{"generator":"COLLADA2GLTF","version":"2.0"},"bufferViews":[{"buffer":0,"byteLength":288,"byteOffset":0,"target":34963},{"buffer":0,"byteLength":2304,"byteOffset":288,"byteStride":12,"target":34962}],"buffers":[{"name":"output","byteLength":2592,"uri":"data:application/octet-stream;base64,"}],"cameras":[{"name":"skp_camera_Last_Saved_SketchUp_View","perspective":{"yfov":0.6108646988868713,"zfar":25.399999618530273,"znear":0.02539999969303608},"type":"perspective"}],"materials":[{"name":"ID4","pbrMetallicRoughness":{"baseColorFactor":[1,1,1,1],"metallicFactor":0,"roughnessFactor":1},"emissiveFactor":[0,0,0],"alphaMode":"OPAQUE","doubleSided":false},{"name":"ID4","pbrMetallicRoughness":{"baseColorFactor":[1,1,1,1],"metallicFactor":0,"roughnessFactor":1},"emissiveFactor":[0,0,0],"alphaMode":"OPAQUE","doubleSided":false},{"name":"ID4","pbrMetallicRoughness":{"baseColorFactor":[1,1,1,1],"metallicFactor":0,"roughnessFactor":1},"emissiveFactor":[0,0,0],"alphaMode":"OPAQUE","doubleSided":false},{"name":"ID4","pbrMetallicRoughness":{"baseColorFactor":[1,1,1,1],"metallicFactor":0,"roughnessFactor":1},"emissiveFactor":[0,0,0],"alphaMode":"OPAQUE","doubleSided":false}],"meshes":[{"name":"ID3","primitives":[{"attributes":{"NORMAL":1,"POSITION":2},"indices":0,"material":0,"mode":4}]},{"name":"ID23","primitives":[{"attributes":{"NORMAL":4,"POSITION":5},"indices":3,"material":1,"mode":4}]},{"name":"ID17","primitives":[{"attributes":{"NORMAL":7,"POSITION":8},"indices":6,"material":2,"mode":4}]},{"name":"ID11","primitives":[{"attributes":{"NORMAL":10,"POSITION":11},"indices":9,"material":3,"mode":4}]}],"nodes":[{"children":[1],"matrix":[1,0,0,0,0,0,-1,0,0,1,0,0,0,0,0,1],"name":"Z_UP"},{"children":[5,4,3,2],"mesh":0,"name":"SketchUp"},{"camera":0,"matrix":[0.8285940289497375,0.5598499774932861,0,0,-0.4460853934288025,0.6602190136909485,0.6042504906654358,0,0.33828970789909363,-0.500678300857544,0.7967944145202637,0,299.4538879394531,-583.75732421875,913.646728515625,1],"name":"skp_camera_Last_Saved_SketchUp_View"},{"mesh":1},{"mesh":2},{"mesh":3}],"scene":0,"scenes":[{"nodes":[0]}]}
