{"accessors":[{"bufferView":0,"byteOffset":0,"componentType":5123,"count":36,"max":[23],"min":[0],"type":"SCALAR"},{"bufferView":1,"byteOffset":0,"componentType":5126,"count":24,"max":[1,1,1],"min":[-1,-1,-1],"type":"VEC3"},{"bufferView":1,"byteOffset":288,"componentType":5126,"count":24,"max":[7439.75537109375,12785.1689453125,9731.681640625],"min":[0,0,0],"type":"VEC3"}],"asset":{"generator":"COLLADA2GLTF","version":"2.0"},"bufferViews":[{"buffer":0,"byteLength":72,"byteOffset":0,"target":34963},{"buffer":0,"byteLength":576,"byteOffset":72,"byteStride":12,"target":34962}],"buffers":[{"name":"output","byteLength":648,"uri":"data:application/octet-stream;base64,"}],"cameras":[{"name":"skp_camera_Last_Saved_SketchUp_View","perspective":{"yfov":0.6108646988868713,"zfar":25.399999618530273,"znear":0.02539999969303608},"type":"perspective"}],"materials":[{"name":"ID4","pbrMetallicRoughness":{"baseColorFactor":[1,1,1,1],"metallicFactor":0,"roughnessFactor":1},"emissiveFactor":[0,0,0],"alphaMode":"OPAQUE","doubleSided":false}],"meshes":[{"name":"ID3","primitives":[{"attributes":{"NORMAL":1,"POSITION":2},"indices":0,"material":0,"mode":4}]}],"nodes":[{"children":[1],"matrix":[1,0,0,0,0,0,-1,0,0,1,0,0,0,0,0,1],"name":"Z_UP"},{"children":[2],"mesh":0,"name":"SketchUp"},{"camera":0,"matrix":[0.9998443126678467,-0.017647700384259224,0,0,0.00960840005427599,0.5443729162216187,0.8387883305549622,0,-0.014802600257098675,-0.8386577367782593,0.544457733631134,0,14433.18359375,-55526.55859375,32027.935546875,1],"name":"skp_camera_Last_Saved_SketchUp_View"}],"scene":0,"scenes":[{"nodes":[0]}]}
